<svg xmlns="http://www.w3.org/2000/svg"  viewBox="0 0 48 48" width="50px" height="50px"><linearGradient id="nBzteS51Qxjtut4Vh3V9ra" x1="46.95" x2="24.45" y1="23.75" y2="25.25" gradientUnits="userSpaceOnUse"><stop offset="0" stop-color="#2aa4f4"/><stop offset="1" stop-color="#007ad9"/></linearGradient><path fill="url(#nBzteS51Qxjtut4Vh3V9ra)" d="M38.193,18.359c-0.771-2.753-2.319-5.177-4.397-7.03l-4.598,4.598	c1.677,1.365,2.808,3.374,3.014,5.648v1.508c0.026,0,0.05-0.008,0.076-0.008c2.322,0,4.212,1.89,4.212,4.212S34.61,31.5,32.288,31.5	c-0.026,0-0.05-0.007-0.076-0.008V31.5h-6.666H24V38h8.212v-0.004c0.026,0,0.05,0.004,0.076,0.004C38.195,38,43,33.194,43,27.288	C43,23.563,41.086,20.279,38.193,18.359z"/><path fill="#ffe082" d="M19.56,25.59l4.72-4.72c-0.004-0.005-0.008-0.009-0.011-0.013l-4.717,4.717	C19.554,25.579,19.557,25.584,19.56,25.59z" opacity=".5"/><path fill="#90caf9" d="M19.56,25.59l4.72-4.72c-0.004-0.005-0.008-0.009-0.011-0.013l-4.717,4.717	C19.554,25.579,19.557,25.584,19.56,25.59z" opacity=".5"/><linearGradient id="nBzteS51Qxjtut4Vh3V9rb" x1="24.835" x2="18.428" y1="9.608" y2="19.289" gradientUnits="userSpaceOnUse"><stop offset="0" stop-color="#f7572f"/><stop offset=".523" stop-color="#f7552d"/><stop offset=".712" stop-color="#f75026"/><stop offset=".846" stop-color="#f7461b"/><stop offset=".954" stop-color="#f7390a"/><stop offset="1" stop-color="#f73100"/></linearGradient><path fill="url(#nBzteS51Qxjtut4Vh3V9rb)" d="M24,7.576c-8.133,0-14.75,6.617-14.75,14.75c0,0.233,0.024,0.46,0.035,0.69h6.5	c-0.019-0.228-0.035-0.457-0.035-0.69c0-4.549,3.701-8.25,8.25-8.25c1.969,0,3.778,0.696,5.198,1.851l4.598-4.598	C31.188,9.003,27.761,7.576,24,7.576z"/><path fill="#90caf9" d="M15.712,31.5L15.712,31.5c-0.001,0-0.001,0-0.002,0c-0.611,0-1.188-0.137-1.712-0.373	l-4.71,4.71C11.081,37.188,13.301,38,15.71,38c0.001,0,0.001,0,0.002,0v0H24v-6.5H15.712z" opacity=".5"/><linearGradient id="nBzteS51Qxjtut4Vh3V9rc" x1="31.305" x2="8.555" y1="40.347" y2="30.222" gradientUnits="userSpaceOnUse"><stop offset="0" stop-color="#4caf50"/><stop offset=".486" stop-color="#4aae50"/><stop offset=".661" stop-color="#43a94e"/><stop offset=".786" stop-color="#38a14c"/><stop offset=".887" stop-color="#279648"/><stop offset=".972" stop-color="#184"/><stop offset="1" stop-color="#088242"/></linearGradient><path fill="url(#nBzteS51Qxjtut4Vh3V9rc)" d="M15.712,31.5L15.712,31.5c-0.001,0-0.001,0-0.002,0c-0.611,0-1.188-0.137-1.712-0.373	l-4.71,4.71C11.081,37.188,13.301,38,15.71,38c0.001,0,0.001,0,0.002,0v0H24v-6.5H15.712z"/><linearGradient id="nBzteS51Qxjtut4Vh3V9rd" x1="17.16" x2="7.285" y1="28.692" y2="19.067" gradientUnits="userSpaceOnUse"><stop offset="0" stop-color="#ffd747"/><stop offset=".482" stop-color="#ffd645"/><stop offset=".655" stop-color="#fed43e"/><stop offset=".779" stop-color="#fccf33"/><stop offset=".879" stop-color="#fac922"/><stop offset=".964" stop-color="#f7c10c"/><stop offset="1" stop-color="#f5bc00"/></linearGradient><path fill="url(#nBzteS51Qxjtut4Vh3V9rd)" d="M11.5,27.29c0-2.32,1.89-4.21,4.21-4.21c1.703,0,3.178,1.023,3.841,2.494l4.717-4.717	c-1.961-2.602-5.065-4.277-8.559-4.277C9.81,16.58,5,21.38,5,27.29c0,3.491,1.691,6.59,4.288,8.547l4.71-4.71	C12.53,30.469,11.5,28.999,11.5,27.29z"/></svg>