<svg xmlns="http://www.w3.org/2000/svg"  viewBox="0 0 48 48" width="50px" height="50px"><linearGradient id="mk_SJzWvwwRCO5Z33XBIga" x1="5.542" x2="19.542" y1="14.188" y2="25.189" gradientUnits="userSpaceOnUse"><stop offset="0" stop-color="#ffd747"/><stop offset=".482" stop-color="#ffd645"/><stop offset=".655" stop-color="#fed43e"/><stop offset=".779" stop-color="#fccf33"/><stop offset=".879" stop-color="#fac922"/><stop offset=".964" stop-color="#f7c10c"/><stop offset="1" stop-color="#f5bc00"/></linearGradient><path fill="url(#mk_SJzWvwwRCO5Z33XBIga)" d="M24,22.5C24,16.701,19.299,12,13.5,12S3,16.701,3,22.5c0,0,0,0.339,0,0.5 c0,0.552,0.448,1,1,1s20,0,20,0s0-0.448,0-1C24,22.839,24,22.5,24,22.5z"/><linearGradient id="mk_SJzWvwwRCO5Z33XBIgb" x1="12.803" x2="26.038" y1="28.522" y2="37.475" gradientUnits="userSpaceOnUse"><stop offset="0" stop-color="#4caf50"/><stop offset=".489" stop-color="#4aaf50"/><stop offset=".665" stop-color="#43ad50"/><stop offset=".79" stop-color="#38aa50"/><stop offset=".892" stop-color="#27a550"/><stop offset=".978" stop-color="#11a050"/><stop offset="1" stop-color="#0a9e50"/></linearGradient><path fill="url(#mk_SJzWvwwRCO5Z33XBIgb)" d="M22.5,24C16.701,24,12,28.701,12,34.5S16.701,45,22.5,45c0,0,0.339,0,0.5,0 c0.552,0,1-0.448,1-1s0-20,0-20s-0.448,0-1,0C22.839,24,22.5,24,22.5,24z"/><g><linearGradient id="mk_SJzWvwwRCO5Z33XBIgc" x1="24" x2="45" y1="30" y2="30" gradientUnits="userSpaceOnUse"><stop offset="0" stop-color="#2aa4f4"/><stop offset="1" stop-color="#007ad9"/></linearGradient><path fill="url(#mk_SJzWvwwRCO5Z33XBIgc)" d="M24,25.5C24,31.299,28.701,36,34.5,36S45,31.299,45,25.5c0,0,0-0.339,0-0.5 c0-0.552-0.448-1-1-1s-20,0-20,0s0,0.448,0,1C24,25.161,24,25.5,24,25.5z"/></g><g><linearGradient id="mk_SJzWvwwRCO5Z33XBIgd" x1="20.216" x2="35.55" y1="10.156" y2="18.823" gradientUnits="userSpaceOnUse"><stop offset="0" stop-color="#f7572f"/><stop offset=".523" stop-color="#f7552d"/><stop offset=".712" stop-color="#f75026"/><stop offset=".846" stop-color="#f7461b"/><stop offset=".954" stop-color="#f7390a"/><stop offset="1" stop-color="#f73100"/></linearGradient><path fill="url(#mk_SJzWvwwRCO5Z33XBIgd)" d="M25.5,24C31.299,24,36,19.299,36,13.5S31.299,3,25.5,3c0,0-0.339,0-0.5,0 c-0.552,0-1,0.448-1,1s0,20,0,20s0.448,0,1,0C25.161,24,25.5,24,25.5,24z"/></g></svg>